PathFileType	4	(X/Y/Z)	Walk1_0-155.trc
DataRate	CameraRate	NumFrames	NumMarkers	Units	OrigDataRate	OrigDataStartFrame	OrigNumFrames
30	30	7	22	m	30	135	155
Frame#	Time	Hip			RHip			RKnee			RAnkle			RBigToe			RSmallToe			RHeel			LHip			LKnee			LAnkle			LBigToe			LSmallToe			LHeel			Neck			Head			Nose			RShoulder			RElbow			RWrist			LShoulder			LElbow			LWrist		
		X1	Y1	Z1	X2	Y2	Z2	X3	Y3	Z3	X4	Y4	Z4	X5	Y5	Z5	X6	Y6	Z6	X7	Y7	Z7	X8	Y8	Z8	X9	Y9	Z9	X10	Y10	Z10	X11	Y11	Z11	X12	Y12	Z12	X13	Y13	Z13	X14	Y14	Z14	X15	Y15	Z15	X16	Y16	Z16	X17	Y17	Z17	X18	Y18	Z18	X19	Y19	Z19	X20	Y20	Z20	X21	Y21	Z21	X22	Y22	Z22
136	4.533333333333333	1.74983481310136	0.8955432214744903	0.3846299105293329	1.786322388254034	0.8704944774318286	0.49181966391569387	1.9415661409831242	0.5294417530563983	0.48183097325456675	1.9222892136096683	0.15613465639393065	0.47884011202593535	2.1408825867697976	0.08230787311408727	0.49263855490632	2.0964560477195247	0.06763581311147075	0.5314985145156278	1.8897348260151925	0.08084362313961072	0.4710797274969343	1.7284737417075022	0.8641693921979647	0.2842771668415924	1.6894921142572135	0.49796538921813766	0.30828891565363875	1.6265217863431911	0.11258880789203439	0.31832094816234086	1.8073410380152308	0.044767384472655596	0.2910721304309226	1.7592970437761692	0.029964521159330574	0.2517819457722216	1.5758295551618204	0.04039378123121368	0.33421226674825516	1.6686293167539736	1.5937233600977814	0.3723473303848727	1.7101931078395267	1.846326124004933	0.3792668016506202	1.8399378456579487	1.6688563545383857	0.3751374309885189	1.629775718322897	1.467272625872844	0.5447506138260411	1.6249865422722531	1.1590753271774847	0.6106175031285709	1.6346383181359627	0.9075129863507772	0.6527700956791773	1.681966092422249	1.47555522203055	0.20451837000328216	1.7778089430525184	1.1872317559518801	0.12589181213040415	2.0044753034930207	1.0187113277509148	0.1393021820037161
137	4.566666666666666	1.7809407530434191	0.8914101584887393	0.3878985157961837	1.818696994049584	0.8671919758158885	0.493034412842246	1.9659156035907	0.5144562837895348	0.480485437627824	2.015538541229455	0.13420101078884497	0.48128198675549766	2.2494101690383284	0.0928896039824531	0.4855221958942493	2.206381604208498	0.07143377339432745	0.5275620299616781	1.9939926134518924	0.05329057780122402	0.47475668648482766	1.7589627592819654	0.8622448546594721	0.28688744009976574	1.7045200320943703	0.4972879527949424	0.30655997397473983	1.627506372622903	0.1122289264103232	0.3189513062789379	1.8109803652121192	0.0438351107439035	0.2874051587457576	1.7613534673038873	0.031346404727906514	0.2536261673509033	1.574282050808836	0.04177951585041923	0.3361509121987479	1.6980762774986813	1.5895791652142028	0.3715845501160076	1.7416101510585655	1.8422684214097074	0.38111044039012487	1.8728181862154252	1.6629283361583937	0.37646608608989246	1.6633277549808643	1.4645045265726182	0.5478706233550217	1.6472405915579342	1.1572650749097588	0.6141832899027143	1.6488562426839444	0.9037263568538925	0.6576659594049399	1.7159702089731166	1.471603660327817	0.20924978532062302	1.8123251272730183	1.1854318494215628	0.12597480661278196	2.0459453997642725	1.028460451558622	0.13937007418688072
138	4.6	1.81455093190522	0.8864658163299239	0.3914252113915446	1.8537427008290617	0.8635398507130972	0.49486207819837713	1.987888649896976	0.5010505455159081	0.480189329307978	2.0931823670912024	0.11954253199426346	0.4826689443805062	2.3304695643426743	0.10170295278688544	0.4801676860528422	2.290111059948001	0.07717841464451068	0.5255491071917116	2.079028368720037	0.035655982635003844	0.47696555844558747	1.7920151494715708	0.8603579963723492	0.288756052190005	1.7239163710976688	0.4963197470444558	0.30406267885450156	1.6289520945779907	0.11221258448477044	0.3202243985699705	1.81760447695144	0.04100817790747061	0.2873082281873069	1.767334662686136	0.03226695377148813	0.25793467609919823	1.5729186393658499	0.04338083208618105	0.338137237923413	1.7286499264755502	1.5837783295249093	0.3726007263814045	1.7736170554742756	1.8370464654948762	0.3843988071419086	1.9055107391585175	1.656649824418345	0.377787920010173	1.6965641662298105	1.4604908824819312	0.5515461504180736	1.6731699133856215	1.153888835456453	0.6182376180305158	1.6685496010420897	0.8983165220228735	0.6624587359504539	1.7496190885851046	1.4661461045505326	0.214626002514843	1.8448164174445858	1.180402629167519	0.12725371238766742	2.0787350972726326	1.0316484485881285	0.1385609539159443
139	4.633333333333334	1.8505536243001222	0.8809618869730671	0.39549423837926956	1.8915092747698445	0.8594677391316565	0.49780657741861617	2.011712762359461	0.4909360244532021	0.48083058094210773	2.1532417124515186	0.10898609082541584	0.482508958568058	2.3846708029552777	0.10343731922236088	0.47804483188163166	2.34850661532725	0.07950457694818255	0.5255183332450092	2.141664983179678	0.024624894919870348	0.4774674583641283	1.827350390985112	0.8582767862626316	0.2905597326111507	1.7485815609814246	0.4950263129787869	0.3016827962821447	1.6313186186941764	0.11398800681103004	0.32184663001283276	1.8250513339466872	0.03686454998970928	0.29035508963369766	1.7749998043772306	0.03229753677498955	0.2633711379645769	1.5721515341975878	0.04666381254266274	0.34027816524476423	1.7609712254614753	1.5767559875311181	0.3757142775614195	1.8057181266609947	1.8312269972815973	0.3888568705922469	1.9378789426525422	1.6508422041114823	0.37936252629158196	1.7294580775714314	1.4553865802801922	0.555607847299643	1.7032944183334884	1.1487173062691987	0.6228294218518764	1.694312294442144	0.8914360208588076	0.6674121434992402	1.7824754063370802	1.459881411068471	0.22004664957941272	1.8759178536643784	1.1729565034485876	0.13047081167555225	2.1040304468454742	1.0280136826374333	0.13734003745284223
140	4.666666666666667	1.8886298308887117	0.8753601318845324	0.40030802676265986	1.9314417024042354	0.8550031421528556	0.5021701730835112	2.0399362913491785	0.4842083074694765	0.48244091524978777	2.1960889261040983	0.10043583054476925	0.4811404955695689	2.4165890807451498	0.09621955602014437	0.4798838873348732	2.3858354054034625	0.07523623973605309	0.5266169796229562	2.1825570470775477	0.017572170788546834	0.476618324313434	1.8646402673088818	0.8558425492100108	0.2930292876974573	1.7787886482886048	0.4936910288429398	0.2997489037752788	1.6353931692246475	0.11921900767441247	0.3233046804779478	1.8317250276894252	0.03197976609543828	0.29532781190920665	1.7823411350401026	0.03136449250022663	0.26759925321928946	1.5728307489528144	0.053386469255901924	0.34227285381543404	1.79532489081392	1.569053072127367	0.3806536417375817	1.8375514780324758	1.8254047384992844	0.3941755582931371	1.9697765036644577	1.646201319635264	0.3815811229509383	1.7622774128475063	1.449560737091925	0.5600279266615782	1.737761416260577	1.141968394337106	0.6279962676448142	1.726654879121774	0.8835236710885543	0.6725562655528451	1.8140091699636531	1.4538013258549263	0.22481899133226357	1.905868448564058	1.1640674695881073	0.13616844384298415	2.123115972967163	1.017771531184295	0.1363941038831961
141	4.7	1.9282103550110656	0.8703477611305485	0.4058812019315992	1.9723843644890244	0.8503471712173661	0.5078204929150443	2.07286616358604	0.4804778979525993	0.4847631536954308	2.2239564813168546	0.09371441976218914	0.4794468489588718	2.432802905120094	0.08247345041009856	0.4852391941370889	2.4076739061337373	0.06467201985658369	0.5280548262307887	2.205572606203233	0.01317964073523688	0.47494307164569877	1.9034360580658098	0.8530140404979673	0.29672564576156263	1.8144283697705796	0.49270848005760637	0.2980854230160793	1.642456951620415	0.12955108552099365	0.3238979337365496	1.8364175868894337	0.026677172783425317	0.30056270574278027	1.78861046797371	0.029861715207175597	0.2687365968061415	1.5762677142202755	0.06551290303881009	0.3434676822780677	1.8316871551148877	1.561306933490944	0.3868360555512695	1.8689335478090772	1.8201380944417949	0.4002977724306087	2.0010543567491927	1.6431626951506113	0.38480712826636165	1.7953965746401008	1.4435642654143297	0.5651064934598251	1.7762621465428323	1.134308129237803	0.6337481428372544	1.7658957275823295	0.8753232937881422	0.6777041664004941	1.843902501002272	1.4488413893916876	0.22841868057386427	1.9346074926667216	1.1547493049593998	0.14441108830769295	2.1369254041761585	1.00185568427068	0.1363759401490819
142	4.733333333333333	1.9684455783180481	0.8666582212165316	0.4120684570112635	2.0127964184673046	0.8458232906803845	0.514257993810698	2.109093336684363	0.47933321924287026	0.4873160962961696	2.240304395074371	0.08928462374713489	0.4780253886623112	2.4397778583532412	0.06665019378401614	0.49224554612068677	2.419149745343096	0.050599110586811206	0.5295209563833816	2.2159952937917002	0.010672181266261996	0.4727824203484638	1.9431190061299346	0.8499142052695927	0.30191829469739195	1.8553114820748244	0.492421811826677	0.2963222329938477	1.654397110801138	0.14616403387429688	0.32315385377972383	1.8385257169509004	0.021314859911457384	0.30440656404649447	1.7943623583930897	0.02853583303575788	0.2665927394472273	1.5842479416629764	0.08475200899848749	0.3433834244089048	1.8693737274456756	1.5543139222823732	0.3935966644470324	1.8998287641126388	1.8159534997969289	0.4074209957683982	2.031546772940888	1.6417975570508054	0.389305092695284	1.8290630455726358	1.4380702974931678	0.5713026548735942	1.8180477439718221	1.126745941856227	0.6399979642618859	1.8120249229017948	0.8677776738417202	0.6824504519838908	1.8722677786788884	1.4455737416802883	0.2308609902168777	1.9619054367345534	1.1460427190076645	0.15465155316997886	2.1456139908365324	0.9821235342109415	0.1376650336604982
